<?xml version="1.0" encoding="UTF-8" standalone="no"?>
<!-- Created with Inkscape (http://www.inkscape.org/) -->

<svg
   xmlns:dc="http://purl.org/dc/elements/1.1/"
   xmlns:cc="http://creativecommons.org/ns#"
   xmlns:rdf="http://www.w3.org/1999/02/22-rdf-syntax-ns#"
   xmlns:svg="http://www.w3.org/2000/svg"
   xmlns="http://www.w3.org/2000/svg"
   xmlns:sodipodi="http://sodipodi.sourceforge.net/DTD/sodipodi-0.dtd"
   xmlns:inkscape="http://www.inkscape.org/namespaces/inkscape"
   width="210mm"
   height="297mm"
   viewBox="0 0 210 297"
   version="1.1"
   id="svg8949"
   inkscape:version="0.92.4 (unknown)"
   sodipodi:docname="logo2.svg">
  <defs
     id="defs8943">
    <marker
       inkscape:stockid="Arrow1Lstart"
       orient="auto"
       refY="0.0"
       refX="0.0"
       id="marker9860"
       style="overflow:visible"
       inkscape:isstock="true">
      <path
         id="path9858"
         d="M 0.0,0.0 L 5.0,-5.0 L -12.5,0.0 L 5.0,5.0 L 0.0,0.0 z "
         style="fill-rule:evenodd;stroke:none;stroke-width:1pt;stroke-opacity:1;fill:#000000;fill-opacity:1"
         transform="scale(0.8) translate(12.5,0)" />
    </marker>
    <marker
       inkscape:stockid="Arrow1Lstart"
       orient="auto"
       refY="0.0"
       refX="0.0"
       id="marker9832"
       style="overflow:visible"
       inkscape:isstock="true">
      <path
         id="path9830"
         d="M 0.0,0.0 L 5.0,-5.0 L -12.5,0.0 L 5.0,5.0 L 0.0,0.0 z "
         style="fill-rule:evenodd;stroke:none;stroke-width:1pt;stroke-opacity:1;fill:#000000;fill-opacity:1"
         transform="scale(0.8) translate(12.5,0)" />
    </marker>
    <marker
       inkscape:stockid="Arrow1Lstart"
       orient="auto"
       refY="0.0"
       refX="0.0"
       id="marker9810"
       style="overflow:visible"
       inkscape:isstock="true">
      <path
         id="path9808"
         d="M 0.0,0.0 L 5.0,-5.0 L -12.5,0.0 L 5.0,5.0 L 0.0,0.0 z "
         style="fill-rule:evenodd;stroke:none;stroke-width:1pt;stroke-opacity:1;fill:#000000;fill-opacity:1"
         transform="scale(0.8) translate(12.5,0)" />
    </marker>
    <marker
       inkscape:stockid="Arrow1Lstart"
       orient="auto"
       refY="0.0"
       refX="0.0"
       id="Arrow1Lstart"
       style="overflow:visible"
       inkscape:isstock="true">
      <path
         id="path9532"
         d="M 0.0,0.0 L 5.0,-5.0 L -12.5,0.0 L 5.0,5.0 L 0.0,0.0 z "
         style="fill-rule:evenodd;stroke:none;stroke-width:1pt;stroke-opacity:1;fill:#000000;fill-opacity:1"
         transform="scale(0.8) translate(12.5,0)" />
    </marker>
    <clipPath
       clipPathUnits="userSpaceOnUse"
       id="clipPath12433">
      <path
         inkscape:connector-curvature="0"
         id="path12435"
         style="font-style:normal;font-variant:normal;font-weight:normal;font-stretch:normal;font-size:207.82376099px;line-height:1.25;font-family:Carlito;-inkscape-font-specification:'Carlito, Normal';font-variant-ligatures:normal;font-variant-caps:normal;font-variant-numeric:normal;font-feature-settings:normal;text-align:start;letter-spacing:0px;word-spacing:0px;writing-mode:lr-tb;text-anchor:start;opacity:0.46799999;fill:#ff0000;fill-opacity:1;stroke:none;stroke-width:5.19565248"
         d="m 164.24324,221.39557 h -14.30818 q -2.43544,0 -3.95759,-1.21772 -1.42067,-1.21772 -2.23248,-3.04429 L 132.37963,185.067 H 77.379396 l -11.263884,31.96508 q -0.608859,1.7251 -2.333958,3.0443 -1.623624,1.31919 -3.957582,1.31919 H 45.515792 L 95.543682,88.055522 H 114.31682 Z M 82.047313,171.87506 H 127.71171 L 108.8371,118.19402 q -1.01477,-2.43543 -2.02953,-5.68268 -1.01477,-3.24724 -1.92806,-7.00187 -1.01476,3.8561 -2.02952,7.10335 -1.01477,3.24725 -1.92806,5.68268 z" />
    </clipPath>
    <clipPath
       clipPathUnits="userSpaceOnUse"
       id="clipPath12670">
      <path
         inkscape:connector-curvature="0"
         id="path12672"
         style="font-style:normal;font-variant:normal;font-weight:normal;font-stretch:normal;font-size:189.33575439px;line-height:1.25;font-family:'Gentium Book Basic';-inkscape-font-specification:'Gentium Book Basic, Normal';font-variant-ligatures:normal;font-variant-caps:normal;font-variant-numeric:normal;font-feature-settings:normal;text-align:start;letter-spacing:0px;word-spacing:0px;writing-mode:lr-tb;text-anchor:start;opacity:0.45700001;fill:#d40000;fill-opacity:1;stroke:none;stroke-width:17.88998985"
         d="M 138.07836,610.51571 77.979172,436.50759 20.675291,610.51571 Z M 9.1446324,645.4571 -27.89324,756.92017 q -3.494142,10.83183 9.08476,15.72363 12.5789008,4.89177 41.230841,8.03652 v 18.51893 H -125.37973 v -18.51893 q 23.76015,-4.19297 37.38729,-8.73535 13.627143,-4.54239 17.121282,-15.0248 L 56.31551,370.4684 q 11.181244,-10.48242 25.856628,-18.51895 15.024798,-8.0365 27.254282,-12.92831 l 146.75384,417.89903 q 1.74707,4.89177 4.54238,8.73532 3.14473,3.84355 8.38594,6.63889 5.2412,2.7953 12.92831,4.89177 8.03652,2.0965 19.21777,3.49417 v 18.51893 H 145.06664 v -18.51893 q 27.25428,-1.74708 37.38728,-6.98831 10.13301,-5.24118 6.28945,-16.77184 L 150.30784,645.4571 Z" />
    </clipPath>
    <filter
       inkscape:collect="always"
       style="color-interpolation-filters:sRGB"
       id="filter12994"
       x="-0.009708202"
       width="1.0194164"
       y="-0.015708209"
       height="1.0314164">
      <feGaussianBlur
         inkscape:collect="always"
         stdDeviation="3.9801416"
         id="feGaussianBlur12996" />
    </filter>
  </defs>
  <sodipodi:namedview
     id="base"
     pagecolor="#ffffff"
     bordercolor="#666666"
     borderopacity="1.0"
     inkscape:pageopacity="0.0"
     inkscape:pageshadow="2"
     inkscape:zoom="0.7046257"
     inkscape:cx="99.015218"
     inkscape:cy="598.2188"
     inkscape:document-units="px"
     inkscape:current-layer="layer1"
     showgrid="false"
     showborder="false"
     inkscape:window-width="1600"
     inkscape:window-height="836"
     inkscape:window-x="1280"
     inkscape:window-y="27"
     inkscape:window-maximized="1"
     inkscape:snap-bbox="false"
     inkscape:bbox-paths="true"
     inkscape:bbox-nodes="true"
     inkscape:snap-bbox-edge-midpoints="true"
     inkscape:snap-bbox-midpoints="true"
     inkscape:snap-nodes="false" />
  <metadata
     id="metadata8946">
    <rdf:RDF>
      <cc:Work
         rdf:about="">
        <dc:format>image/svg+xml</dc:format>
        <dc:type
           rdf:resource="http://purl.org/dc/dcmitype/StillImage" />
        <dc:title></dc:title>
      </cc:Work>
    </rdf:RDF>
  </metadata>
  <g
     inkscape:label="Layer 1"
     inkscape:groupmode="layer"
     id="layer1">
    <path
       inkscape:connector-curvature="0"
       id="path12609"
       style="font-style:normal;font-variant:normal;font-weight:normal;font-stretch:normal;font-size:189.33575439px;line-height:1.25;font-family:'Gentium Book Basic';-inkscape-font-specification:'Gentium Book Basic, Normal';font-variant-ligatures:normal;font-variant-caps:normal;font-variant-numeric:normal;font-feature-settings:normal;text-align:start;letter-spacing:0px;word-spacing:0px;writing-mode:lr-tb;text-anchor:start;fill:#cccccc;fill-opacity:1;stroke:none;stroke-width:4.73339319"
       d="M 38.649902,162.59062 22.748657,116.55097 7.5870045,162.59062 Z m -34.1137178,9.24491 -9.7996045,29.49127 q -0.9244909,2.86592 2.4036766,4.16021 3.32816757,1.29428 10.9089937,2.12633 v 4.8998 h -39.105969 v -4.8998 q 6.286539,-1.10939 9.892054,-2.31123 3.605515,-1.20184 4.530006,-3.97531 L 17.016813,99.078094 q 2.958371,-2.773473 6.841233,-4.899803 3.975311,-2.126329 7.21103,-3.420616 L 69.897697,201.3268 q 0.462246,1.29428 1.201838,2.31122 0.832042,1.01694 2.218779,1.75654 1.386736,0.73959 3.420616,1.29428 2.12633,0.5547 5.084701,0.9245 v 4.8998 H 40.498884 v -4.8998 q 7.211029,-0.46225 9.892053,-1.84899 2.681024,-1.38673 1.664084,-4.43755 L 41.88562,171.83553 Z" />
    <path
       style="opacity:0.674;fill:#000000;fill-opacity:1;fill-rule:evenodd;stroke:#333333;stroke-width:0;stroke-miterlimit:4;stroke-dasharray:none;stroke-opacity:0.99561403;filter:url(#filter12994)"
       d="M -396.03516 269.05469 L -396.03516 877.16602 L 587.91016 877.16602 L 587.91016 269.05469 L -396.03516 269.05469 z M 117.42578 343.02148 L 264.17969 760.91992 C 265.3444 764.1811 266.85912 767.09388 268.72266 769.65625 C 270.81914 772.21862 273.61523 774.43136 277.10938 776.29492 C 280.60351 778.15846 284.91237 779.7879 290.03711 781.18555 C 295.39479 782.58322 301.79974 783.74791 309.25391 784.67969 L 309.25391 803.19922 L 153.06641 803.19922 L 153.06641 784.67969 C 171.23593 783.51496 183.69779 781.18555 190.45312 777.69141 C 197.20846 774.19728 199.30651 768.60703 196.74414 760.91992 L 158.30859 649.45703 L 17.144531 649.45703 L -19.892578 760.91992 C -22.222004 768.14114 -19.194528 773.38333 -10.808594 776.64453 C -2.4226597 779.90571 11.320581 782.58318 30.421875 784.67969 L 30.421875 803.19922 L -117.37891 803.19922 L -117.37891 784.67969 C -101.53881 781.88437 -89.07695 778.97357 -79.992188 775.94531 C -70.907425 772.91705 -65.20052 767.90819 -62.871094 760.91992 L 64.316406 374.46875 C 71.770569 367.48047 80.388286 361.3069 90.171875 355.94922 C 100.18841 350.59154 109.27279 346.28268 117.42578 343.02148 z M 85.978516 440.50781 L 28.675781 614.51562 L 146.07812 614.51562 L 85.978516 440.50781 z "
       transform="scale(0.26458333)"
       id="rect12625"
       clip-path="url(#clipPath12670)" />
  </g>
</svg>
