<?xml version="1.0" encoding="UTF-8" standalone="no"?>
<!-- Created with Inkscape (http://www.inkscape.org/) -->

<svg
   xmlns:dc="http://purl.org/dc/elements/1.1/"
   xmlns:cc="http://creativecommons.org/ns#"
   xmlns:rdf="http://www.w3.org/1999/02/22-rdf-syntax-ns#"
   xmlns:svg="http://www.w3.org/2000/svg"
   xmlns="http://www.w3.org/2000/svg"
   xmlns:xlink="http://www.w3.org/1999/xlink"
   xmlns:sodipodi="http://sodipodi.sourceforge.net/DTD/sodipodi-0.dtd"
   xmlns:inkscape="http://www.inkscape.org/namespaces/inkscape"
   width="10cm"
   height="21cm"
   viewBox="0 0 100 210"
   version="1.1"
   id="svg8"
   inkscape:version="0.92.4 (unknown)"
   sodipodi:docname="pamhplet.svg">
  <defs
     id="defs2">
    <style
       id="style2056"
       type="text/css">
   <![CDATA[
    .fil3 {fill:#373435}
    .fil0 {fill:#E13236}
    .fil2 {fill:#FEFEFE;fill-rule:nonzero}
    .fil1 {fill:#E23236;fill-rule:nonzero}
   ]]>
  </style>
    <style
       id="style2102"
       type="text/css">
   <![CDATA[
    .fil0 {fill:#E13236}
    .fil1 {fill:#FEFEFE;fill-rule:nonzero}
   ]]>
  </style>
    <linearGradient
       inkscape:collect="always"
       id="linearGradient5248">
      <stop
         style="stop-color:#c30707;stop-opacity:1"
         offset="0"
         id="stop5244" />
      <stop
         style="stop-color:#0e0b43;stop-opacity:1"
         offset="1"
         id="stop5246" />
    </linearGradient>
    <linearGradient
       id="linearGradient5208"
       inkscape:collect="always">
      <stop
         id="stop5204"
         offset="0"
         style="stop-color:#c30707;stop-opacity:1" />
      <stop
         id="stop5206"
         offset="1"
         style="stop-color:#0778bd;stop-opacity:1" />
    </linearGradient>
    <linearGradient
       gradientUnits="userSpaceOnUse"
       y2="135.6259"
       x2="45.240017"
       y1="135.5578"
       x1="145.34535"
       id="linearGradient5202"
       xlink:href="#linearGradient5208"
       inkscape:collect="always" />
    <linearGradient
       gradientTransform="matrix(0.08969732,0,0,0.08969732,78.647662,84.603355)"
       gradientUnits="userSpaceOnUse"
       y2="551.8916"
       x2="785.30469"
       y1="551.8916"
       x1="390.67969"
       id="linearGradient5242"
       xlink:href="#linearGradient5248"
       inkscape:collect="always" />
  </defs>
  <sodipodi:namedview
     id="base"
     pagecolor="#ffffff"
     bordercolor="#666666"
     borderopacity="1.0"
     inkscape:pageopacity="0.0"
     inkscape:pageshadow="2"
     inkscape:zoom="1"
     inkscape:cx="143.26423"
     inkscape:cy="483.66097"
     inkscape:document-units="px"
     inkscape:current-layer="layer1"
     showgrid="false"
     units="cm"
     inkscape:window-width="1600"
     inkscape:window-height="836"
     inkscape:window-x="1280"
     inkscape:window-y="27"
     inkscape:window-maximized="1" />
  <metadata
     id="metadata5">
    <rdf:RDF>
      <cc:Work
         rdf:about="">
        <dc:format>image/svg+xml</dc:format>
        <dc:type
           rdf:resource="http://purl.org/dc/dcmitype/StillImage" />
        <dc:title></dc:title>
      </cc:Work>
    </rdf:RDF>
  </metadata>
  <g
     inkscape:label="Layer 1"
     inkscape:groupmode="layer"
     id="layer1"
     transform="translate(0,-87.00001)">
    <rect
       style="opacity:1;fill:#ececec;fill-opacity:1;fill-rule:evenodd;stroke:#000000;stroke-width:0.49999999;stroke-miterlimit:4;stroke-dasharray:none;stroke-opacity:1"
       id="rect1916"
       width="99.995392"
       height="209.95959"
       x="0.06681738"
       y="86.992981"
       ry="0" />
    <g
       style="clip-rule:evenodd;fill-rule:evenodd;stroke-width:2.22080016;image-rendering:optimizeQuality;shape-rendering:geometricPrecision;text-rendering:geometricPrecision"
       id="g2100"
       transform="matrix(0.11900782,0,0,0.11900782,20.765219,94.994685)">
      <g
         id="Layer_x0020_1"
         style="stroke-width:2.22080016">
  <metadata
   id="CorelCorpID_0Corel-Layer" />

  <g
   id="_2745005801248"
   style="stroke-width:2.22080016">
   <path
   id="path2061"
   d="m 86.641,62.988 c 0.187,-7.359 0.098,-15.026 0,-22.57 V 13.645 c 0,-2.234 -0.589,-4.342 -1.622,-6.176 C 81.376,-2.205 68.836,0.286 25.655,0.293 -5.091,0.297 0.376,0.251 0.376,62.703 c 0,37.536 -2.947,31.724 54.84,31.724 10.186,0 27.006,2.987 30.436,-8.458 0.637,-1.506 0.989,-3.156 0.989,-4.886 z"
   class="fil0"
   inkscape:connector-curvature="0"
   style="fill:#e13236;stroke-width:2.22080016" />

   <path
   id="path2063"
   d="m 129.729,72.625 c -16.518,0 -22.223,-11.098 -22.223,-21.814 V 2.767 h 13.051 v 47.52 c 0,8.791 8.123,11.618 12.524,11.618 H 155.29 V 2.767 h 13.169 v 72.452 c 0,7.479 -1.936,18.85 -18.464,18.85 H 109.441 V 83.327 h 36.443 c 5.527,0 9.406,-1.918 9.406,-6.948 v -3.754 z"
   class="fil1"
   inkscape:connector-curvature="0"
   style="fill:#e23236;fill-rule:nonzero;stroke-width:2.22080016" />

   <path
   id="path2065"
   d="m 225.407,2.767 c 6.833,0 19.388,3.742 19.388,20.663 v 49.195 h -43.526 c -14.461,0 -23.247,-7.235 -23.247,-21.045 0,-13.937 8.786,-21.304 23.247,-21.304 h 30.337 v -2.075 c 0,-9.816 -3.61,-14.574 -11.108,-14.574 H 180.739 V 2.767 Z m -20.411,38.227 v 0 c -8.643,0 -12.378,3.349 -12.378,10.586 0,6.975 3.735,10.325 12.783,10.325 h 26.205 V 40.994 Z"
   class="fil1"
   inkscape:connector-curvature="0"
   style="fill:#e23236;fill-rule:nonzero;stroke-width:2.22080016" />

   <path
   id="path2067"
   d="M 317.481,26.156 V 72.625 H 304.312 V 29.128 c 0,-7.249 -2.478,-15.501 -14.734,-15.501 H 269.32 V 72.625 H 256.281 V 2.767 h 36.558 c 15.721,0 24.642,7.614 24.642,23.389 z"
   class="fil1"
   inkscape:connector-curvature="0"
   style="fill:#e23236;fill-rule:nonzero;stroke-width:2.22080016" />

   <path
   id="path2069"
   d="m 368.04,2.767 v 10.86 h -20.782 v 41.447 c 0,4.004 2.71,6.831 6.699,6.831 h 11.291 v 10.72 h -18.279 c -6.048,0 -12.904,-5.413 -12.904,-14.578 V 13.627 H 320.388 V 2.767 Z"
   class="fil1"
   inkscape:connector-curvature="0"
   style="fill:#e23236;fill-rule:nonzero;stroke-width:2.22080016" />

   <path
   id="path2071"
   d="m 400.114,2.767 c 7.886,0 20.662,4.016 20.662,20.143 v 10.337 h -13.153 v -8.12 c 0,-6.742 -2.218,-11.5 -11.499,-11.5 H 386.58 V 72.625 H 373.516 V 2.767 Z"
   class="fil1"
   inkscape:connector-curvature="0"
   style="fill:#e23236;fill-rule:nonzero;stroke-width:2.22080016" />

   <path
   id="path2073"
   d="m 472.08,2.767 c 6.83,0 19.293,3.723 19.36,20.527 v 49.331 h -43.505 c -14.471,0 -23.258,-7.235 -23.258,-21.045 0,-13.937 8.787,-21.304 23.258,-21.304 h 30.323 v -2.075 c 0,-9.816 -3.608,-14.574 -11.081,-14.574 H 427.389 V 2.767 Z m -20.415,38.227 v 0 c -8.629,0 -12.389,3.349 -12.389,10.586 0,6.975 3.76,10.325 12.778,10.325 h 26.204 V 40.994 Z"
   class="fil1"
   inkscape:connector-curvature="0"
   style="fill:#e23236;fill-rule:nonzero;stroke-width:2.22080016" />

   <path
   id="path2075"
   d="m 71.431,40.459 v -8.604 c 0.033,-4.005 -0.578,-7.381 -1.798,-10.106 -1.199,-2.672 -3.11,-4.732 -5.685,-6.115 -2.569,-1.395 -5.88,-2.11 -9.975,-2.11 H 33.374 c -3.95,0 -7.294,0.636 -10.084,1.826 -2.777,1.262 -4.895,3.178 -6.376,5.736 -1.498,2.569 -2.228,5.866 -2.228,9.961 v 32.344 c -0.034,2.047 0.109,3.938 0.364,5.646 0.3,1.733 0.846,3.3 1.675,4.826 0.855,1.498 2.074,2.942 3.69,4.274 1.415,1.187 2.849,2.034 4.309,2.569 1.467,0.575 3.006,0.901 4.589,1.082 1.618,0.156 3.332,0.208 5.124,0.195 H 87.305 V 70.227 H 36.647 c -0.952,0.034 -1.838,0 -2.608,0 -0.762,-0.082 -1.531,-0.186 -2.281,-0.46 -0.718,-0.209 -1.416,-0.625 -2.216,-1.16 -0.893,-0.718 -1.551,-1.458 -2.003,-2.227 -0.442,-0.77 -0.676,-1.619 -0.795,-2.53 -0.137,-0.888 -0.221,-1.917 -0.189,-3.064 V 58.777 Z M 59.449,33.9 v 0 L 26.431,47.448 V 33.9 c 0,-2.215 0.476,-3.975 1.462,-5.24 0.932,-1.306 2.216,-2.177 3.851,-2.726 1.598,-0.507 3.429,-0.808 5.451,-0.756 h 12.973 c 1.72,-0.052 3.304,0.21 4.7,0.678 1.381,0.496 2.489,1.29 3.331,2.426 0.808,1.106 1.212,2.609 1.25,4.523 z"
   class="fil2"
   inkscape:connector-curvature="0"
   style="fill:#fefefe;fill-rule:nonzero;stroke-width:2.22080016" />

   <path
   id="path2077"
   d="m 483.497,85.329 h 0.049 l 0.466,9.578 h 2.152 l 6.229,-12.369 h -2.079 l -4.58,9.719 h -0.045 l -0.343,-9.719 h -2.319 l -4.458,9.719 h -0.047 l -0.295,-9.719 h -2.27 l 0.936,12.369 h 2.152 z m -19.001,3.382 v 0 c 0.352,-1.656 1.622,-4.731 4.603,-4.731 2.98,0 2.94,3.075 2.587,4.731 -0.352,1.655 -1.622,4.729 -4.601,4.729 -2.98,0 -2.942,-3.074 -2.589,-4.729 z m -2.151,0 v 0 c -0.681,3.192 0.407,6.526 4.356,6.526 3.948,0 6.457,-3.334 7.138,-6.526 0.679,-3.193 -0.407,-6.528 -4.358,-6.528 -3.948,0 -6.457,3.335 -7.136,6.528 z m -4.59,-0.993 v 0 c 0.383,-1.798 1.936,-3.311 3.875,-3.311 h 0.781 l 0.458,-2.153 c -0.156,-0.047 -0.27,-0.071 -0.528,-0.071 -1.562,0 -2.857,0.97 -3.991,2.413 h -0.048 l 0.438,-2.058 h -1.963 l -2.634,12.369 h 2.08 z m -7.875,0 v 0 c 0.384,-1.798 1.934,-3.311 3.874,-3.311 h 0.781 l 0.458,-2.153 c -0.154,-0.047 -0.268,-0.071 -0.529,-0.071 -1.56,0 -2.854,0.97 -3.989,2.413 h -0.049 l 0.439,-2.058 h -1.962 l -2.634,12.369 h 2.08 z m -14.281,0.993 v 0 c 0.352,-1.656 1.621,-4.731 4.601,-4.731 2.98,0 2.939,3.075 2.587,4.731 -0.353,1.655 -1.622,4.729 -4.603,4.729 -2.978,0 -2.939,-3.074 -2.585,-4.729 z m -2.153,0 v 0 c -0.681,3.192 0.407,6.526 4.356,6.526 3.95,0 6.456,-3.334 7.138,-6.526 0.68,-3.193 -0.409,-6.528 -4.357,-6.528 -3.95,0 -6.457,3.335 -7.137,6.528 z m -20.31,6.196 v 0 h 2.08 l 1.436,-6.74 c 0.715,-3.359 2.957,-4.115 4.14,-4.115 1.536,0 1.673,1.253 1.451,2.293 l -1.824,8.562 h 2.081 l 1.608,-7.543 c 0.353,-1.656 1.863,-3.312 3.614,-3.312 1.774,0 2.047,1.159 1.683,2.861 l -1.701,7.994 h 2.081 l 1.824,-8.562 c 0.74,-3.475 -1.62,-4.162 -2.946,-4.162 -1.915,0 -2.924,0.851 -4.211,2.01 -0.214,-0.661 -0.636,-2.01 -2.858,-2.01 -2.225,0 -3.595,1.443 -4.185,2.106 h -0.049 l 0.373,-1.751 h -1.963 z m -10.387,-6.196 v 0 c 0.353,-1.656 1.622,-4.731 4.602,-4.731 2.981,0 2.94,3.075 2.588,4.731 -0.354,1.655 -1.623,4.729 -4.603,4.729 -2.979,0 -2.939,-3.074 -2.587,-4.729 z m -2.152,0 v 0 c -0.68,3.192 0.407,6.526 4.356,6.526 3.95,0 6.456,-3.334 7.137,-6.526 0.681,-3.193 -0.407,-6.528 -4.355,-6.528 -3.951,0 -6.457,3.335 -7.138,6.528 z m -0.376,-4.446 v 0 l 0.367,-1.727 h -1.987 l 0.735,-3.452 h -2.081 l -0.736,3.452 h -1.679 l -0.367,1.727 h 1.678 l -1.736,8.159 c -0.319,1.489 -0.115,2.647 1.943,2.647 0.211,0 0.824,-0.094 1.594,-0.164 l 0.348,-1.632 h -0.734 c -0.424,0 -1.252,0 -1.046,-0.969 l 1.713,-8.041 z m -17.361,3.453 v 0 c 0.382,-1.798 1.932,-3.311 3.874,-3.311 h 0.781 l 0.457,-2.153 c -0.156,-0.047 -0.269,-0.071 -0.529,-0.071 -1.561,0 -2.855,0.97 -3.989,2.413 h -0.049 l 0.439,-2.058 h -1.963 l -2.634,12.369 h 2.08 z m -13.887,0.022 v 0 c 0.407,-1.914 2.298,-3.688 4.214,-3.688 2.531,0 2.956,1.774 2.667,3.688 z m 6.086,3.289 v 0 c -0.268,0.922 -1.748,2.435 -3.712,2.435 -2.387,0 -3.277,-1.489 -2.727,-4.068 h 9.034 c 0.932,-4.375 -0.215,-7.213 -3.786,-7.213 -4.09,0 -6.585,3.052 -7.401,6.883 -0.76,3.57 0.737,6.196 4.214,6.196 1.987,0 2.892,-0.473 3.539,-0.852 1.784,-1.04 2.724,-2.789 2.92,-3.381 z m -9.011,-6.764 v 0 l 0.367,-1.727 h -1.986 l 0.734,-3.452 h -2.08 l -0.736,3.452 h -1.679 l -0.368,1.727 h 1.679 l -1.737,8.159 c -0.318,1.489 -0.115,2.647 1.942,2.647 0.213,0 0.824,-0.094 1.597,-0.164 l 0.346,-1.632 h -0.732 c -0.426,0 -1.254,0 -1.047,-0.969 l 1.713,-8.041 z m -6.576,0 v 0 l 0.369,-1.727 h -1.988 l 0.736,-3.452 h -2.082 l -0.735,3.452 h -1.679 l -0.367,1.727 h 1.679 l -1.738,8.159 c -0.317,1.489 -0.114,2.647 1.943,2.647 0.213,0 0.824,-0.094 1.595,-0.164 l 0.348,-1.632 h -0.733 c -0.425,0 -1.253,0 -1.046,-0.969 l 1.712,-8.041 z m -16.798,3.475 v 0 c 0.408,-1.914 2.3,-3.688 4.214,-3.688 2.532,0 2.958,1.774 2.668,3.688 z m 6.087,3.289 v 0 c -0.268,0.922 -1.749,2.435 -3.711,2.435 -2.389,0 -3.277,-1.489 -2.728,-4.068 h 9.034 c 0.931,-4.375 -0.214,-7.213 -3.785,-7.213 -4.092,0 -6.586,3.052 -7.401,6.883 -0.762,3.57 0.738,6.196 4.213,6.196 1.986,0 2.892,-0.473 3.54,-0.852 1.783,-1.04 2.723,-2.789 2.919,-3.381 z m -12.532,-2.342 v 0 c -0.58,2.719 -2.081,4.777 -4.352,4.777 -1.325,0 -3.195,-0.875 -2.494,-4.162 0.427,-2.011 1.448,-5.25 4.452,-5.25 3.217,0 2.733,3.051 2.394,4.635 z m -8.064,6.22 v 0 l 0.327,-1.537 h 0.047 c 0.28,0.686 0.898,1.892 3.003,1.892 4.209,0 6.279,-3.951 6.91,-6.907 0.741,-3.475 -0.553,-6.172 -3.841,-6.172 -1.448,0.024 -2.803,0.615 -3.979,1.916 h -0.047 l 1.314,-6.173 h -2.08 l -3.618,16.981 z M 315.1,90.626 v 0 c -0.353,1.656 -2.511,2.908 -4.451,2.908 -1.561,0 -2.075,-0.803 -1.788,-2.15 0.332,-1.562 2.029,-1.87 3.076,-2.011 2.649,-0.332 3.209,-0.521 3.595,-0.78 z m -4.777,-4.327 v 0 c 0.342,-0.946 0.981,-2.389 3.346,-2.389 1.963,0 2.758,0.71 2.48,2.01 -0.262,1.229 -0.893,1.42 -1.399,1.465 l -3.52,0.427 c -3.544,0.425 -4.365,2.838 -4.588,3.878 -0.452,2.129 0.848,3.572 3.119,3.572 2.413,0 3.908,-1.137 4.897,-2.011 -0.129,0.947 -0.048,1.893 1.798,1.893 0.473,0 0.809,-0.143 1.185,-0.237 l 0.322,-1.513 c -0.246,0.046 -0.516,0.094 -0.707,0.094 -0.424,0 -0.64,-0.213 -0.529,-0.734 l 1.516,-7.118 c 0.677,-3.168 -2.858,-3.453 -3.853,-3.453 -3.05,0 -5.26,1.16 -5.984,4.116 z m -10.505,-3.761 v 0 h -1.962 l -0.373,1.751 h -0.048 c -0.345,-0.71 -0.994,-2.106 -3.24,-2.106 -3.287,0 -5.73,2.697 -6.47,6.172 -0.629,2.956 -0.241,6.907 3.968,6.907 1.656,0 2.91,-0.782 3.641,-1.656 l 0.019,-0.094 h 0.048 l -0.111,0.52 c -0.313,1.466 -0.856,4.351 -4.452,4.351 -0.497,0 -2.411,0 -2.372,-1.963 h -2.082 c -0.297,3.287 2.48,3.69 3.945,3.69 5.724,0 6.693,-4.447 7.072,-6.221 z m -10.013,6.149 v 0 c 0.339,-1.584 1.153,-4.635 4.37,-4.635 3.004,0 2.645,3.239 2.217,5.25 -0.701,3.287 -2.945,4.162 -4.27,4.162 -2.269,0 -2.895,-2.058 -2.317,-4.777 z m -4.165,-2.199 v 0 c 0.751,-3.523 -1.497,-4.305 -3.412,-4.305 -2.129,0 -3.594,1.443 -4.185,2.106 h -0.047 l 0.373,-1.751 h -1.964 l -2.633,12.369 h 2.08 l 1.436,-6.74 c 0.715,-3.359 2.957,-4.115 4.14,-4.115 2.034,0 2.417,1.088 1.958,3.239 l -1.622,7.616 h 2.083 z m -11.877,-6.197 v 0 l 0.504,-2.365 h -2.082 l -0.504,2.365 z m -0.478,2.247 v 0 h -2.081 l -2.635,12.369 h 2.08 z m -9.097,5.18 v 0 c 0.383,-1.798 1.936,-3.311 3.874,-3.311 h 0.781 l 0.458,-2.153 c -0.155,-0.047 -0.269,-0.071 -0.528,-0.071 -1.561,0 -2.856,0.97 -3.991,2.413 h -0.048 l 0.439,-2.058 h -1.963 l -2.635,12.369 h 2.081 z m -13.887,0.022 v 0 c 0.409,-1.914 2.299,-3.688 4.215,-3.688 2.531,0 2.957,1.774 2.668,3.688 z m 6.087,3.289 v 0 c -0.268,0.922 -1.748,2.435 -3.712,2.435 -2.387,0 -3.277,-1.489 -2.728,-4.068 h 9.034 c 0.932,-4.375 -0.213,-7.213 -3.785,-7.213 -4.091,0 -6.585,3.052 -7.401,6.883 -0.76,3.57 0.737,6.196 4.214,6.196 1.986,0 2.891,-0.473 3.539,-0.852 1.784,-1.04 2.724,-2.789 2.92,-3.381 z M 237.152,87.74 v 0 c 0.408,-1.914 2.3,-3.688 4.214,-3.688 2.532,0 2.958,1.774 2.668,3.688 z m 6.086,3.289 v 0 c -0.267,0.922 -1.747,2.435 -3.71,2.435 -2.389,0 -3.277,-1.489 -2.728,-4.068 h 9.033 c 0.932,-4.375 -0.214,-7.213 -3.783,-7.213 -4.093,0 -6.587,3.052 -7.404,6.883 -0.76,3.57 0.739,6.196 4.215,6.196 1.986,0 2.892,-0.473 3.54,-0.852 1.782,-1.04 2.722,-2.789 2.92,-3.381 z m -10.525,-4.541 v 0 c 0.751,-3.523 -1.496,-4.305 -3.412,-4.305 -2.128,0 -3.594,1.443 -4.184,2.106 h -0.047 l 0.373,-1.751 h -1.964 l -2.633,12.369 h 2.08 l 1.436,-6.74 c 0.714,-3.359 2.957,-4.115 4.14,-4.115 2.034,0 2.416,1.088 1.957,3.239 l -1.621,7.616 h 2.082 z m -11.876,-6.197 v 0 l 0.504,-2.365 h -2.082 l -0.503,2.365 z m -0.479,2.247 v 0 h -2.08 l -2.636,12.369 h 2.082 z m -5.014,0 v 0 h -1.963 l -0.373,1.751 h -0.046 c -0.346,-0.71 -0.995,-2.106 -3.242,-2.106 -3.287,0 -5.729,2.697 -6.469,6.172 -0.63,2.956 -0.241,6.907 3.968,6.907 1.655,0 2.909,-0.782 3.64,-1.656 l 0.02,-0.094 h 0.047 l -0.11,0.52 c -0.313,1.466 -0.857,4.351 -4.452,4.351 -0.497,0 -2.411,0 -2.372,-1.963 h -2.08 c -0.298,3.287 2.478,3.69 3.943,3.69 5.724,0 6.694,-4.447 7.072,-6.221 z m -10.011,6.149 v 0 c 0.336,-1.584 1.152,-4.635 4.368,-4.635 3.004,0 2.645,3.239 2.216,5.25 -0.701,3.287 -2.944,4.162 -4.267,4.162 -2.271,0 -2.898,-2.058 -2.317,-4.777 z m -4.167,-2.199 v 0 c 0.75,-3.523 -1.497,-4.305 -3.413,-4.305 -2.128,0 -3.593,1.443 -4.183,2.106 h -0.048 l 0.373,-1.751 h -1.963 l -2.635,12.369 h 2.081 l 1.436,-6.74 c 0.715,-3.359 2.958,-4.115 4.14,-4.115 2.033,0 2.417,1.088 1.959,3.239 l -1.623,7.616 h 2.082 z m -14.179,6.385 v 0 h -10.239 l 1.207,-5.676 h 9.295 l 0.434,-2.035 h -9.295 l 1.108,-5.202 h 10.074 l 0.434,-2.034 h -12.368 l -3.617,16.981 h 12.534 z"
   class="fil3"
   inkscape:connector-curvature="0"
   style="fill:#373435;stroke-width:2.22080016" />

  </g>

 </g>
    </g>
    <g
       style="clip-rule:evenodd;fill-rule:evenodd;image-rendering:optimizeQuality;shape-rendering:geometricPrecision;text-rendering:geometricPrecision"
       id="g2125"
       transform="matrix(0.78802599,0,0,0.78802599,669.13565,9.5757628)">
      <g
         id="Layer_x0020_1-4">
  <metadata
   id="CorelCorpID_0Corel-Layer-8" />

  <g
   id="_1911738499504">
   <path
   id="path2107"
   d="m 402.69,292.76 c 0.87,-34.21 0.45,-69.84 0,-104.91 V 63.42 c 0,-10.38 -2.74,-20.18 -7.54,-28.71 C 378.21,-10.25 319.93,1.33 119.24,1.36 -23.66,1.38 1.75,1.17 1.75,291.43 c 0,174.46 -13.7,147.45 254.88,147.45 47.34,0 125.52,13.88 141.46,-39.32 2.96,-6.99 4.6,-14.66 4.6,-22.7 z"
   class="fil0"
   inkscape:connector-curvature="0"
   style="fill:#e13236" />

   <path
   id="path2109"
   d="m 329.89,188.04 v -39.99 c 0.15,-18.61 -2.67,-34.3 -8.29,-46.97 -5.53,-12.41 -14.35,-21.99 -26.21,-28.42 -11.85,-6.48 -27.12,-9.8 -46,-9.8 h -94.97 c -18.21,0 -33.63,2.95 -46.49,8.48 C 95.12,77.21 85.36,86.11 78.53,98 71.62,109.94 68.26,125.27 68.26,144.3 v 150.33 c -0.16,9.51 0.5,18.3 1.68,26.24 1.38,8.06 3.9,15.34 7.72,22.43 3.94,6.96 9.56,13.67 17.01,19.87 6.52,5.51 13.14,9.45 19.87,11.93 6.76,2.67 13.86,4.19 21.16,5.04 7.45,0.72 15.36,0.96 23.62,0.9 H 403.08 V 326.4 H 169.51 c -4.39,0.16 -8.48,0 -12.03,0 -3.51,-0.38 -7.05,-0.86 -10.51,-2.14 -3.31,-0.97 -6.53,-2.9 -10.22,-5.39 -4.12,-3.34 -7.15,-6.78 -9.23,-10.35 -2.04,-3.58 -3.12,-7.52 -3.67,-11.76 -0.63,-4.13 -1.02,-8.91 -0.87,-14.24 v -9.34 z m -55.25,-30.48 v 0 l -152.23,62.97 v -62.97 c 0,-10.3 2.19,-18.47 6.74,-24.36 4.29,-6.06 10.21,-10.11 17.75,-12.67 7.37,-2.35 15.81,-3.75 25.13,-3.51 h 59.82 c 7.93,-0.24 15.23,0.98 21.67,3.16 6.37,2.3 11.48,5.99 15.36,11.27 3.72,5.14 5.59,12.12 5.76,21.02 z"
   class="fil1"
   inkscape:connector-curvature="0"
   style="fill:#fefefe;fill-rule:nonzero" />

  </g>

 </g>
    </g>
    <g
       id="layer2"
       inkscape:label="Layer 2"
       transform="matrix(0.28003261,0,0,0.27040891,4.3775002,54.870058)"
       style="stroke-width:3.63400245">
      <g
         aria-label="F"
         transform="matrix(1.2965862,0,0,1.5000752,19.325786,-56.630237)"
         style="font-style:oblique;font-variant:normal;font-weight:normal;font-stretch:normal;font-size:81.29837036px;line-height:1.25;font-family:Garuda;-inkscape-font-specification:'Garuda, Oblique';font-variant-ligatures:normal;font-variant-caps:normal;font-variant-numeric:normal;font-feature-settings:normal;text-align:start;letter-spacing:0px;word-spacing:0px;writing-mode:lr-tb;text-anchor:start;fill:#000000;fill-opacity:1;stroke:none;stroke-width:7.38596153"
         id="text4601" />
      <g
         id="g2419"
         transform="translate(0,114.01647)"
         inkscape:export-xdpi="96"
         inkscape:export-ydpi="96"
         style="stroke-width:3.63400245">
        <path
           inkscape:connector-curvature="0"
           id="rect5172"
           d="m 127.93861,119.30534 c -0.855,0 -1.54324,0.82046 -1.54325,1.83948 1e-5,1.01904 0.68824,1.83933 1.54326,1.83932 l 3.2135,1e-5 -0.29922,1.631 c -0.0716,-0.0109 -0.14463,-0.0165 -0.21898,-0.0165 l -4.48837,-1e-5 c -0.91835,1e-5 -1.65764,0.82048 -1.65764,1.83949 0,1.01902 0.7393,1.83932 1.65763,1.83931 l 4.03534,10e-6 -0.28065,1.52939 c -0.0688,-0.004 -0.13826,-0.006 -0.20849,-0.006 l -7.35813,-1e-5 c -1.50553,0 -2.71755,0.82029 -2.71755,1.83931 0,1.01902 1.21202,1.83948 2.71755,1.83948 l 6.89266,10e-6 -0.28241,1.53922 c -0.0786,-0.01 -0.1586,-0.0158 -0.23999,-0.0159 l -5.0234,1e-5 c -1.02784,0 -1.85543,0.82047 -1.85542,1.83949 -1e-5,1.01904 0.82759,1.83932 1.85541,1.83932 h 4.5912 l -0.29571,1.61211 h -10.18624 c -1.08584,0 -1.96003,0.78029 -1.96003,1.74962 0,0.96934 0.87419,1.7498 1.96004,1.7498 l 9.54398,-10e-6 -0.31272,1.70426 h -7.05944 c -1.51386,-1e-5 -1.80849,0.55951 -1.80849,1.504 0,0.94451 0.29463,1.90573 1.8085,1.90572 h 7.39895 2.42972 l 2.50154,-13.51959 h 11.93571 l 0.60738,-3.47279 h -11.9357 l 1.67972,-9.13698 h 13.86524 l 0.6433,-3.47296 h -16.96997 z m -7.08974,5.29334 c -1.11457,0 -2.01189,0.82046 -2.01188,1.83949 0,1.01902 0.89731,1.83931 2.01187,1.83931 l 0.3714,3e-5 c 1.11457,0 2.01187,-0.82028 2.01186,-1.83932 1e-5,-1.01902 -0.89729,-1.83947 -2.01186,-1.83947 z m -2.65028,10.40467 c -1.03729,10e-6 -1.87244,0.78545 -1.87243,1.76101 0,0.97556 0.83513,1.76102 1.87244,1.76101 1.03728,0 1.87243,-0.78545 1.87242,-1.761 10e-6,-0.97556 -0.83513,-1.76102 -1.87243,-1.76102 z m -2.63556,10.38247 c -1.0373,0 -1.87243,0.78529 -1.87243,1.76084 0,0.97555 0.83513,1.761 1.87243,1.761 1.03729,1e-5 1.87244,-0.78545 1.87243,-1.76101 10e-6,-0.97555 -0.83514,-1.76083 -1.87243,-1.76083 z"
           style="opacity:0.806;fill:url(#linearGradient5242);fill-opacity:1;stroke:none;stroke-width:0.19480722;stroke-opacity:1" />
        <text
           id="text5252"
           y="148.99936"
           x="13.845385"
           style="font-style:italic;font-variant:normal;font-weight:normal;font-stretch:normal;font-size:26.99632072px;line-height:1.25;font-family:sans-serif;-inkscape-font-specification:'sans-serif, Italic';font-variant-ligatures:normal;font-variant-caps:normal;font-variant-numeric:normal;font-feature-settings:normal;text-align:start;letter-spacing:0px;word-spacing:0px;writing-mode:lr-tb;text-anchor:start;fill:#202040;fill-opacity:1;stroke:#202040;stroke-width:2.45261478;stroke-opacity:1"
           xml:space="preserve"><tspan
             style="font-style:italic;font-variant:normal;font-weight:normal;font-stretch:normal;font-size:26.99632072px;font-family:sans-serif;-inkscape-font-specification:'sans-serif, Italic';font-variant-ligatures:normal;font-variant-caps:normal;font-variant-numeric:normal;font-feature-settings:normal;text-align:start;writing-mode:lr-tb;text-anchor:start;fill:#202040;fill-opacity:1;stroke:#202040;stroke-width:2.45261478;stroke-opacity:1"
             y="148.99936"
             x="13.845385"
             id="tspan5250"
             sodipodi:role="line">GRADE    AST</tspan></text>
      </g>
    </g>
    <flowRoot
       xml:space="preserve"
       id="flowRoot2349"
       style="fill:black;fill-opacity:1;stroke:none;font-family:sans-serif;font-style:normal;font-weight:normal;font-size:21.33333333px;letter-spacing:0px;word-spacing:0px;"><flowRegion
         id="flowRegion2351"
         style="font-size:21.33333333px;"><rect
           id="rect2353"
           width="316.42856"
           height="102.85714"
           x="31.428572"
           y="163.70081"
           style="font-size:21.33333333px;" /></flowRegion><flowPara
         id="flowPara2355"></flowPara></flowRoot>    <flowRoot
       xml:space="preserve"
       id="flowRoot2357"
       style="font-style:normal;font-weight:normal;font-size:40px;line-height:0;font-family:sans-serif;letter-spacing:0px;word-spacing:0px;fill:#000000;fill-opacity:1;stroke:none"
       transform="matrix(0.26458333,0,0,0.26458333,1.3776418,87.00001)"><flowRegion
         id="flowRegion2359"><rect
           id="rect2361"
           width="334.82843"
           height="168.033"
           x="26"
           y="165.70081" /></flowRegion><flowPara
         id="flowPara2363"
         style="font-size:13.33333302px;line-height:1.25">GradeFast is hosted on pip at <flowSpan
   style="line-height:1.25;fill:#0000ff"
   id="flowSpan2385">https://pypi.org/project/gradefast/</flowSpan></flowPara><flowPara
         style="font-size:13.33333302px;line-height:1.25"
         id="flowPara2420" /><flowPara
         style="font-size:13.33333302px;line-height:1.25"
         id="flowPara2387" /><flowPara
         style="font-size:13.33333302px;line-height:1.25"
         id="flowPara2389" /><flowPara
         style="font-size:13.33333302px;line-height:1.25"
         id="flowPara2367" /><flowPara
         style="font-size:13.33333302px;line-height:1.25"
         id="flowPara2391" /><flowPara
         style="font-size:13.33333302px;line-height:1.25"
         id="flowPara2369" /><flowPara
         style="font-size:13.33333302px;line-height:1.25"
         id="flowPara2426" /><flowPara
         style="font-size:13.33333302px;line-height:1.25"
         id="flowPara2428" /><flowPara
         style="font-size:13.33333302px;line-height:1.25"
         id="flowPara2430" /><flowPara
         style="font-size:13.33333302px;line-height:1.25"
         id="flowPara2432" /><flowPara
         style="font-size:13.33333302px;line-height:1.25"
         id="flowPara2434" /><flowPara
         style="font-size:13.33333302px;line-height:1.25"
         id="flowPara2436" /><flowPara
         style="font-size:13.33333302px;line-height:1.25"
         id="flowPara2438" /><flowPara
         style="font-size:13.33333302px;line-height:1.25"
         id="flowPara2440" /><flowPara
         style="font-size:13.33333302px;line-height:1.25"
         id="flowPara2442" /><flowPara
         style="font-size:13.33333302px;line-height:1.25"
         id="flowPara2444" /><flowPara
         style="font-size:13.33333302px;line-height:1.25"
         id="flowPara2446" /><flowPara
         style="font-size:13.33333302px;line-height:1.25"
         id="flowPara2371"></flowPara><flowPara
         style="font-size:13.33333302px;line-height:1.25"
         id="flowPara2462">Though it is not available in open domain currently, you can contact us for early acces: <flowSpan
   style="line-height:1.25;fill:#0000ff"
   id="flowSpan2375">omkar@e-yantra.org <flowSpan
   style="line-height:1.25;fill:#000000"
   id="flowSpan2379">or <flowSpan
   style="line-height:1.25;fill:#0000ff"
   id="flowSpan2383">support@e-yantra.org</flowSpan> </flowSpan> </flowSpan></flowPara></flowRoot>  </g>
</svg>
